<svg xmlns="http://www.w3.org/2000/svg" width="2881" height="693" fill="none"><path fill="#24BBC7" stroke="#24BBC7" stroke-linejoin="round" stroke-width="1.406" d="m20.386 395.772 7.03 38.664 21.089 50.614 29.525 42.178L123.02 568l42.178 23.901 53.426 16.871 33.742 4.218 56.941-4.218-16.871-16.168-28.119-15.465-28.822-1.406-26.713-5.624-30.93-11.248-37.961-22.495-34.445-31.633-22.495-30.931-18.278-39.366-7.03-31.634-37.257-7.03Zm337.426-33.742v17.574l7.03 26.713 14.059 28.119 21.089 27.416-19.683 39.366-2.812 35.851 18.277 56.941 1.406 23.198 3.515 1.406 9.842-5.624 9.841-11.247 1.406-38.664 7.733-10.544 10.544-2.812v-7.733l-8.435-11.247 12.653-3.515 8.436-8.436v-3.515l-14.059-14.762v-4.921l18.277-11.95 4.218-13.357-18.278-16.168-14.059-26.713L426 411.238l9.842-3.515v-4.921l-11.248-.703 4.218-20.386-45.693-7.03-25.307-12.653Zm1781.328-42.178-33.74 94.901-35.15 72.405v20.387h208.78l-1.41-56.941-143.4-.703v-75.218l123.72-2.109v-52.722h-118.8ZM18.98 347.267l41.475-21.792-35.851-16.871-5.624 38.663ZM47.1 236.901l23.198 2.109-14.06-13.356-9.138 11.247Zm2806.261-46.396v17.574l4.21-5.624 9.14 5.624v-16.168l-13.35-1.406Zm3.51 2.812 4.22-.703 2.11 4.218-5.63 2.109-.7-5.624Zm-696.64-5.624-4.22 55.535 123.02-1.406-1.41-55.535-117.39 1.406Zm-26.01-1.406h-63.97V433.03l24.6-59.05 25.31-82.95 12.65-68.891 1.41-35.852Zm-357.81 0L1775 506.139h65.38V387.337l49.2-.703 68.19 120.911h61.16l1.41-21.792-59.05-104.743 19.68-14.059 14.06-15.466 9.84-16.871 7.03-22.495V257.99l-15.46-36.554-25.31-22.495-33.74-11.248-160.98-1.406Zm63.97 57.644 75.92-.703 16.87 7.029 7.73 7.733 7.03 19.683v18.981l-7.03 19.683-11.95 10.544-11.25 4.218-76.62 1.406-.7-88.574Zm-342.35-57.644v56.941l89.98 2.109v262.208h63.97V243.931l88.57-.703 1.41-55.535-243.93-1.406Zm-279.78 0-1.41 319.852 63.97 1.406V311.416l2.81-.703 121.62 196.832h58.34V186.287l-63.97 1.406-.7 195.426-4.22-2.109-119.5-194.723h-56.94Zm-309.309 0v235.495l12.653 39.367 9.842 14.059 25.307 21.089 16.871 8.436 30.926 8.435h55.54l30.93-8.435 16.87-8.436 29.53-26.713 9.84-16.871 7.03-22.495 1.4-243.931h-63.97l-1.4 229.871-4.22 12.654-9.14 11.95-15.46 9.842-15.47 4.218h-27.42l-15.46-4.218-20.387-14.762-8.436-16.872-1.406-231.277-63.97-1.406Zm-307.901 0-1.406 319.852h65.376l.703-130.753h115.99l.703 130.753 63.97 1.406 1.406-319.852h-65.376l-.703 130.753h-115.99l-.703-130.753-63.97-1.406Zm2255.13-7.03-11.25 5.624-5.62 16.169 5.62 12.653 11.25 5.624 14.76-2.812 8.44-9.842v-14.762l-11.25-11.248-11.95-1.406Zm-1.41 4.921h10.55l9.14 9.139v11.95l-9.14 9.139h-10.55l-10.54-10.545 1.4-11.95 9.14-7.733Zm-167.3-3.515-32.34 8.436-16.87 8.436-25.31 22.495-15.46 33.742-1.41 34.446 2.81 14.059 14.06 25.307 29.53 22.495 103.33 40.773 14.06 8.435 7.73 9.139 2.82 9.841-2.82 14.763-10.54 11.95-14.06 7.03-12.65 2.812-35.85-1.406-23.91-9.842-7.73-6.326-8.43-14.06-2.82-18.98h-63.97l1.41 23.198 5.62 21.089 9.85 18.277 16.87 18.278 21.09 14.059 46.39 14.059 58.35-1.406 30.93-8.435 16.87-8.436 26.71-23.901 8.44-14.059 7.03-22.495 1.4-28.822-4.21-16.871-12.66-21.089-26.71-22.496-50.61-22.495-58.35-19.683-16.87-9.841-7.73-11.951v-17.574l5.62-9.842 14.76-10.544 15.47-4.218h31.63l22.5 8.436 10.54 9.138 7.03 14.06 1.41 16.168h65.37l-2.81-28.822-4.22-15.465-11.24-21.089-25.31-23.901-16.87-8.436-32.34-8.436h-55.53Zm-281.19 0-39.37 11.248-25.31 16.871-11.24 12.654-9.84 18.277-5.63 19.683 2.81 44.287 12.66 22.495 30.93 23.901 40.77 18.277 45.69 15.466 28.12 14.059 11.95 14.763-1.4 18.98-9.14 11.95-21.09 9.842h-42.88l-23.9-9.842-10.55-9.138-7.03-15.466-1.4-14.762h-63.97l1.4 26.01 9.84 28.119 8.44 12.653 29.52 25.307 30.93 12.654 21.09 4.217 56.94-1.406 28.12-7.029 21.09-9.842 25.31-22.495 11.25-19.683 5.62-19.683v-34.446l-12.65-26.713-25.31-23.901-47.8-22.495-51.32-16.871-29.52-14.059-10.55-17.575 2.81-17.574 9.14-10.544 18.28-8.436h44.29l16.87 7.03 11.95 11.95 5.62 12.654 1.41 14.762h63.97l-1.41-27.416-7.03-22.495-9.84-16.871-26.71-23.901-26.71-11.248-21.09-4.218h-54.13ZM200.347 124.426l39.366 27.416h14.762l-6.326-18.278 33.742 18.278 40.069 5.623-2.811-14.059 24.604 22.495 26.009 11.248 20.387 14.059.703-17.574 3.514 1.406 19.684 35.851 33.742 40.069 18.277 36.555 11.248 42.178 5.624 71 7.029 26.713 10.545 21.089 9.841-32.337 4.218-28.118v-47.099l-4.218-28.119-21.089-60.456-33.742-50.613-25.307-25.307-32.337-23.901-59.049-26.713-52.02-9.842h-41.475l-44.99 8.436ZM121.614.703 110.366 18.98 99.119 48.505 93.495 78.03v18.98l4.218 23.901 11.247 26.713 15.466 22.495 16.871 16.871-2.812.703-38.663-29.525-26.713-15.465-43.584-9.842-16.168.703 22.495 53.426 12.653 18.277L71 227.762l43.584 25.307 73.109 19.684-40.772-4.921-82.248-21.089-41.475 2.811L.703 260.099l26.713 30.931 40.772 23.901 22.495 7.029 36.555 5.624 67.485-1.406-20.386 4.921H93.495l-15.465 2.812-37.96 16.871-30.931 26.01 53.425 11.248h49.911l43.584-7.03 44.991-14.059-11.248 7.732-51.317 16.872-23.901 11.247-22.495 18.277-14.06 22.495 1.407 4.921h16.168l29.525-5.624 46.396-19.683 30.93-19.683-16.871 14.762-52.723 30.931-12.653 14.059-5.624 14.06v11.95l14.763-1.406 25.307-8.435 33.742-19.683 28.119-26.713-4.921 9.841-35.148 33.04-7.03 11.247-2.812 26.01h10.545l18.277-5.623 19.683-11.248 39.366-39.366 15.466-26.713-4.218-33.04 7.03-30.93 2.811-.703 3.515 29.524 11.248 36.555 21.089 36.554 28.119 29.525-12.654-2.109-19.683-11.247-17.574-16.169-13.357-18.98-15.465 28.822-23.198 24.604-48.505 31.633 24.604 5.624 47.802 18.277 54.832 35.149 33.039 38.663 12.654 29.525 4.921 30.228 12.653-43.584 1.406-41.476-5.624-25.307-12.653-33.039-1.406-35.852 7.029-26.712 11.248-22.496-18.277-26.009-16.872-40.773-4.217-25.307 1.406-28.821 2.811-12.654 4.218-2.109 14.763 18.277 25.307 14.06 25.307 5.624h30.227l.703 28.118 7.03 26.713 11.247 21.089 18.981 18.278-14.06-29.525-9.841-44.99 1.406-48.505-48.505-4.218-22.495-7.03-16.169-10.544 7.03-1.406 34.446 8.435 35.851 2.812 1.406-9.138-7.03-22.495L426 253.772l-23.901-37.96-4.921 31.634-4.218 6.326-24.604-47.802-30.227-28.118 5.624 29.524-4.218 29.525-9.139-21.089-12.653-18.277-21.089-21.089-24.604-15.466 18.277 44.99 7.029 33.743-1.405 42.881-9.842 29.525-7.03 9.138 6.327-31.633v-40.07l-7.03-23.9-15.465-26.713-25.307-26.713-65.376-49.208L142 92.792l-19.683-39.366-2.812-15.466L121.614.703Z"/></svg>